<svg width="170" height="46" viewBox="0 0 170 46" fill="none" xmlns="http://www.w3.org/2000/svg">
<g filter="url(#filter0_d_12_12)">
<path d="M54.6602 6.49565L58.0388 15.9144H68.9723L60.1269 21.7355L63.5055 31.1543L54.6602 25.3332L45.8149 31.1543L49.1935 21.7355L40.3482 15.9144H51.2816L54.6602 6.49565Z" fill="#F8B205"/>
<path d="M54.6602 7.9765L57.5682 16.0832L57.687 16.4144H58.0388H67.303L59.8521 21.3179L59.5235 21.5341L59.6563 21.9043L62.5291 29.9131L54.9351 24.9155L54.6602 24.7346L54.3854 24.9155L46.7913 29.9131L49.6642 21.9043L49.797 21.5341L49.4684 21.3179L42.0175 16.4144H51.2816H51.6335L51.7523 16.0832L54.6602 7.9765Z" stroke="#F8B205"/>
</g>
<g filter="url(#filter1_d_12_12)">
<path d="M144.951 6.49565L148.33 15.9144H159.264L150.418 21.7355L153.797 31.1543L144.951 25.3332L136.106 31.1543L139.485 21.7355L130.639 15.9144H141.573L144.951 6.49565Z" fill="url(#paint0_linear_12_12)"/>
<path d="M144.951 7.9765L147.859 16.0832L147.978 16.4144H148.33H157.594L150.143 21.3179L149.815 21.5341L149.948 21.9043L152.82 29.9131L145.226 24.9155L144.951 24.7346L144.677 24.9155L137.083 29.9131L139.955 21.9043L140.088 21.5341L139.76 21.3179L132.309 16.4144H141.573H141.925L142.044 16.0832L144.951 7.9765Z" stroke="url(#paint1_linear_12_12)"/>
</g>
<g filter="url(#filter2_d_12_12)">
<path d="M25.0485 6L28.4272 15.4188H39.3606L30.5152 21.2399L33.8939 30.6586L25.0485 24.8375L16.2032 30.6586L19.5818 21.2399L10.7365 15.4188H21.6699L25.0485 6Z" fill="#F8B205"/>
<path d="M25.0485 7.48084L27.9565 15.5876L28.0753 15.9188H28.4272H37.6913L30.2404 20.8222L29.9118 21.0384L30.0446 21.4087L32.9175 29.4175L25.3234 24.4198L25.0485 24.239L24.7737 24.4198L17.1796 29.4175L20.0525 21.4087L20.1853 21.0384L19.8567 20.8222L12.4058 15.9188H21.6699H22.0218L22.1406 15.5876L25.0485 7.48084Z" stroke="#F8B205"/>
</g>
<g filter="url(#filter3_d_12_12)">
<path d="M114.854 6.49565L118.233 15.9144H129.166L120.321 21.7355L123.7 31.1543L114.854 25.3332L106.009 31.1543L109.388 21.7355L100.542 15.9144H111.476L114.854 6.49565Z" fill="#F8B205"/>
<path d="M114.854 7.9765L117.762 16.0832L117.881 16.4144H118.233H127.497L120.046 21.3179L119.718 21.5341L119.85 21.9043L122.723 29.9131L115.129 24.9155L114.854 24.7346L114.58 24.9155L106.985 29.9131L109.858 21.9043L109.991 21.5341L109.663 21.3179L102.212 16.4144H111.476H111.828L111.946 16.0832L114.854 7.9765Z" stroke="#F8B205"/>
</g>
<g filter="url(#filter4_d_12_12)">
<path d="M84.7573 6L88.1359 15.4188H99.0693L90.224 21.2399L93.6026 30.6586L84.7573 24.8375L75.912 30.6586L79.2906 21.2399L70.4453 15.4188H81.3787L84.7573 6Z" fill="#F8B205"/>
<path d="M84.7573 7.48084L87.6653 15.5876L87.7841 15.9188H88.1359H97.4L89.9491 20.8222L89.6205 21.0384L89.7534 21.4087L92.6262 29.4175L85.0322 24.4198L84.7573 24.239L84.4824 24.4198L76.8884 29.4175L79.7612 21.4087L79.894 21.0384L79.5654 20.8222L72.1146 15.9188H81.3787H81.7305L81.8493 15.5876L84.7573 7.48084Z" stroke="#F8B205"/>
</g>
<defs>
<filter id="filter0_d_12_12" x="30.3482" y="0.495651" width="48.624" height="44.6586" filterUnits="userSpaceOnUse" color-interpolation-filters="sRGB">
<feFlood flood-opacity="0" result="BackgroundImageFix"/>
<feColorMatrix in="SourceAlpha" type="matrix" values="0 0 0 0 0 0 0 0 0 0 0 0 0 0 0 0 0 0 127 0" result="hardAlpha"/>
<feOffset dy="4"/>
<feGaussianBlur stdDeviation="5"/>
<feComposite in2="hardAlpha" operator="out"/>
<feColorMatrix type="matrix" values="0 0 0 0 0 0 0 0 0 0 0 0 0 0 0 0 0 0 0.8 0"/>
<feBlend mode="normal" in2="BackgroundImageFix" result="effect1_dropShadow_12_12"/>
<feBlend mode="normal" in="SourceGraphic" in2="effect1_dropShadow_12_12" result="shape"/>
</filter>
<filter id="filter1_d_12_12" x="120.639" y="0.495651" width="48.624" height="44.6586" filterUnits="userSpaceOnUse" color-interpolation-filters="sRGB">
<feFlood flood-opacity="0" result="BackgroundImageFix"/>
<feColorMatrix in="SourceAlpha" type="matrix" values="0 0 0 0 0 0 0 0 0 0 0 0 0 0 0 0 0 0 127 0" result="hardAlpha"/>
<feOffset dy="4"/>
<feGaussianBlur stdDeviation="5"/>
<feComposite in2="hardAlpha" operator="out"/>
<feColorMatrix type="matrix" values="0 0 0 0 0 0 0 0 0 0 0 0 0 0 0 0 0 0 0.8 0"/>
<feBlend mode="normal" in2="BackgroundImageFix" result="effect1_dropShadow_12_12"/>
<feBlend mode="normal" in="SourceGraphic" in2="effect1_dropShadow_12_12" result="shape"/>
</filter>
<filter id="filter2_d_12_12" x="0.736511" y="0" width="48.624" height="44.6586" filterUnits="userSpaceOnUse" color-interpolation-filters="sRGB">
<feFlood flood-opacity="0" result="BackgroundImageFix"/>
<feColorMatrix in="SourceAlpha" type="matrix" values="0 0 0 0 0 0 0 0 0 0 0 0 0 0 0 0 0 0 127 0" result="hardAlpha"/>
<feOffset dy="4"/>
<feGaussianBlur stdDeviation="5"/>
<feComposite in2="hardAlpha" operator="out"/>
<feColorMatrix type="matrix" values="0 0 0 0 0 0 0 0 0 0 0 0 0 0 0 0 0 0 0.8 0"/>
<feBlend mode="normal" in2="BackgroundImageFix" result="effect1_dropShadow_12_12"/>
<feBlend mode="normal" in="SourceGraphic" in2="effect1_dropShadow_12_12" result="shape"/>
</filter>
<filter id="filter3_d_12_12" x="90.5424" y="0.495651" width="48.624" height="44.6586" filterUnits="userSpaceOnUse" color-interpolation-filters="sRGB">
<feFlood flood-opacity="0" result="BackgroundImageFix"/>
<feColorMatrix in="SourceAlpha" type="matrix" values="0 0 0 0 0 0 0 0 0 0 0 0 0 0 0 0 0 0 127 0" result="hardAlpha"/>
<feOffset dy="4"/>
<feGaussianBlur stdDeviation="5"/>
<feComposite in2="hardAlpha" operator="out"/>
<feColorMatrix type="matrix" values="0 0 0 0 0 0 0 0 0 0 0 0 0 0 0 0 0 0 0.8 0"/>
<feBlend mode="normal" in2="BackgroundImageFix" result="effect1_dropShadow_12_12"/>
<feBlend mode="normal" in="SourceGraphic" in2="effect1_dropShadow_12_12" result="shape"/>
</filter>
<filter id="filter4_d_12_12" x="60.4453" y="0" width="48.624" height="44.6586" filterUnits="userSpaceOnUse" color-interpolation-filters="sRGB">
<feFlood flood-opacity="0" result="BackgroundImageFix"/>
<feColorMatrix in="SourceAlpha" type="matrix" values="0 0 0 0 0 0 0 0 0 0 0 0 0 0 0 0 0 0 127 0" result="hardAlpha"/>
<feOffset dy="4"/>
<feGaussianBlur stdDeviation="5"/>
<feComposite in2="hardAlpha" operator="out"/>
<feColorMatrix type="matrix" values="0 0 0 0 0 0 0 0 0 0 0 0 0 0 0 0 0 0 0.8 0"/>
<feBlend mode="normal" in2="BackgroundImageFix" result="effect1_dropShadow_12_12"/>
<feBlend mode="normal" in="SourceGraphic" in2="effect1_dropShadow_12_12" result="shape"/>
</filter>
<linearGradient id="paint0_linear_12_12" x1="145.093" y1="19.8788" x2="146.025" y2="19.8788" gradientUnits="userSpaceOnUse">
<stop stop-color="#F8B205"/>
<stop offset="1" stop-color="#EAD7A8"/>
</linearGradient>
<linearGradient id="paint1_linear_12_12" x1="144.951" y1="6.49565" x2="163" y2="6.5" gradientUnits="userSpaceOnUse">
<stop stop-color="#F8B205"/>
<stop offset="0.06" stop-color="#EAD7A8"/>
</linearGradient>
</defs>
</svg>
